<svg xmlns="http://www.w3.org/2000/svg" xmlns:xlink="http://www.w3.org/1999/xlink" width="14.001" height="12.826" viewBox="0 0 14.001 12.826">
  <defs>
    <linearGradient id="linear-gradient" x1="0.154" x2="0.887" y2="1" gradientUnits="objectBoundingBox">
      <stop offset="0" stop-color="#3224e0"/>
      <stop offset="1" stop-color="#a50db2"/>
    </linearGradient>
  </defs>
  <g id="그룹_199" data-name="그룹 199" transform="translate(0 -0.587)">
    <path id="패스_18" data-name="패스 18" d="M13.275,11.7a2.218,2.218,0,0,1-2.2,1.713l-3.527-.152c-2.5-.352-2.92-2.632-2.92-4.545V6.293a1.983,1.983,0,0,1,.529-1.348L8.068,1.208C8.5.739,9.038.121,9.707,1.13a2.067,2.067,0,0,1,.47,1.129,1.587,1.587,0,0,1-.17.715L8.85,5.192h3.943a1.029,1.029,0,0,1,.572.162,1.331,1.331,0,0,1,.6,1.442Z" fill="url(#linear-gradient)"/>
    <path id="패스_19" data-name="패스 19" d="M1.5,12.422H2.9a.325.325,0,0,0,.323-.323l.323-5.728a.324.324,0,0,0-.323-.323h-1.4a1.507,1.507,0,0,0-1.5,1.5L0,10.92a1.507,1.507,0,0,0,1.5,1.5Z" fill="url(#linear-gradient)"/>
  </g>
</svg>
