<svg xmlns="http://www.w3.org/2000/svg" xmlns:xlink="http://www.w3.org/1999/xlink" width="13.673" height="14" viewBox="0 0 13.673 14">
  <defs>
    <linearGradient id="linear-gradient" x1="0.5" x2="1" y2="0.784" gradientUnits="objectBoundingBox">
      <stop offset="0" stop-color="#3224e0"/>
      <stop offset="1" stop-color="#a50db2"/>
    </linearGradient>
  </defs>
  <path id="패스_14" data-name="패스 14" d="M12.353,6l.986-.532a.626.626,0,0,0,.256-.857L12.52,2.669a.643.643,0,0,0-.869-.252l-.989.535a1.14,1.14,0,0,1-1.071-.077c-.135-.087-.273-.167-.411-.241a1.108,1.108,0,0,1-.586-.892V.633A.635.635,0,0,0,7.956,0H5.714a.636.636,0,0,0-.637.633V1.746a1.106,1.106,0,0,1-.585.889c-.11.059-.22.122-.327.189a1.138,1.138,0,0,1-1.074.052l-.757-.427a.643.643,0,0,0-.873.231L.343,4.6a.625.625,0,0,0,.237.861l.756.431a1.092,1.092,0,0,1,.492.941v.238A1.1,1.1,0,0,1,1.314,8l-.98.534a.625.625,0,0,0-.255.857L1.148,11.33a.643.643,0,0,0,.869.252l.993-.535a1.124,1.124,0,0,1,1.067.077c.135.087.273.168.415.241a1.113,1.113,0,0,1,.585.892v1.11A.637.637,0,0,0,5.715,14H7.956a.637.637,0,0,0,.639-.633V12.253a1.092,1.092,0,0,1,.585-.888c.11-.06.219-.123.326-.189a1.14,1.14,0,0,1,1.075-.052l.755.426a.642.642,0,0,0,.872-.231L13.325,9.4a.626.626,0,0,0-.238-.861l-.758-.43a1.112,1.112,0,0,1-.49-.942V6.926A1.1,1.1,0,0,1,12.353,6ZM6.834,9.464a2.478,2.478,0,1,1,.952-.181,2.465,2.465,0,0,1-.952.181Z" fill-rule="evenodd" fill="url(#linear-gradient)"/>
</svg>
