<svg xmlns="http://www.w3.org/2000/svg" xmlns:xlink="http://www.w3.org/1999/xlink" width="17.904" height="15.809" viewBox="0 0 17.904 15.809">
  <defs>
    <linearGradient id="linear-gradient" x2="1.064" y2="1.041" gradientUnits="objectBoundingBox">
      <stop offset="0" stop-color="#3224e0"/>
      <stop offset="1" stop-color="#a50db2"/>
    </linearGradient>
  </defs>
  <path id="패스_4" data-name="패스 4" d="M2.654,0A2.652,2.652,0,0,0,0,2.658V13.57a2.247,2.247,0,0,0,2.246,2.238H15.659A2.236,2.236,0,0,0,17.9,13.565V2.658A2.652,2.652,0,0,0,15.253,0Zm13,12.108a1.542,1.542,0,0,1-1.544,1.547H3.792a1.542,1.542,0,0,1-1.544-1.547V6.667A1.542,1.542,0,0,1,3.792,5.123H14.112a1.542,1.542,0,0,1,1.544,1.544Z" fill-rule="evenodd" fill="url(#linear-gradient)"/>
</svg>
