<svg xmlns="http://www.w3.org/2000/svg" width="25" height="24.989" viewBox="0 0 25 24.989">
  <path id="패스_12" data-name="패스 12" d="M22.313,9.817H15.351a.384.384,0,0,1-.357-.357V2.678A2.488,2.488,0,0,0,12.5,0,2.629,2.629,0,0,0,9.818,2.678V9.639A.384.384,0,0,1,9.461,10H2.679A2.4,2.4,0,0,0,0,12.494a2.745,2.745,0,0,0,2.677,2.677H9.64a.384.384,0,0,1,.357.357V22.49a2.437,2.437,0,0,0,2.5,2.5,2.745,2.745,0,0,0,2.677-2.677V15.35a.384.384,0,0,1,.357-.357h6.961a2.552,2.552,0,0,0,2.5-2.5,2.485,2.485,0,0,0-2.677-2.677Z" transform="translate(0.002)" fill="#060ee0"/>
</svg>
